# xmcd
#
# Track frame offsets: 
#        150
#        11544
#        24467
#        35311
#        46535
#        57614
#        68701
#        82655
#        96209
#        110878
#        123247
#        133601
#        144443
#        155512
#        168836
#        180663
#        193376
#        206860
#        219206
#        233193
#        242921
#        254648
#
# Disc length: 3627 seconds
#
# Revision: 2
# Processed by: cddbd v1.5.2PL0 Copyright (c) Steve Scherf et al.
# Submitted via: ExactAudioCopy v1.3
#
DISCID=340e2916
DTITLE=Various Artisits - Sun blues box sampler
DYEAR=2013
DGENRE=Blues
TTITLE0=Billy Love - Juiced
TTITLE1=Dr. Ross - Shake 'em on down
TTITLE2=J.C.Cole - No right blues (Deep blue sea blues)
TTITLE3=Jackie Brenston and His Delta Cats - My real gone rocket
TTITLE4=B.B.King - B. B. blues
TTITLE5=The Howlin' Wolf - Mr. Highway man
TTITLE6=Sleepy John Estes - Rats in my kitchen
TTITLE7=Jimmy and Walter - Easy
TTITLE8=Joe Hill Louis - Tiger man
TTITLE9=The Prisonaires - Just walkin' in the rain
TTITLE10=Earl Hooker - Move on down the line
TTITLE11=Johnny O'Neal - Ugly woman (Peg leg baby)
TTITLE12=Little Junior's Blue  Flames - Mystery train
TTITLE13=Honeyboy Edwards - Sweet home Chicago
TTITLE14=Hot Shot Love - Wolf call boogie
TTITLE15=Little Milton - Rode that train (Lookin' for my baby)
TTITLE16=James Cotton - Cotton crop blues
TTITLE17=Charlie Booker - Walked all night
TTITLE18=Pat Hare - Cheatin' and lyin' blues (aka I'm gonna murder my 
TTITLE18=baby)
TTITLE19=Sammy Lewis/Willie Johnson Combo - So long baby goodbye
TTITLE20=Billy 'The Kid' Emerson - Little fine healthy thing
TTITLE21=Hunky Dory - Baby don't leave me
EXTD=
EXTT0=
EXTT1=
EXTT2=
EXTT3=
EXTT4=
EXTT5=
EXTT6=
EXTT7=
EXTT8=
EXTT9=
EXTT10=
EXTT11=
EXTT12=
EXTT13=
EXTT14=
EXTT15=
EXTT16=
EXTT17=
EXTT18=
EXTT19=
EXTT20=
EXTT21=
PLAYORDER=
